# xmcd
#
# Track frame offsets:
#	150
#	13607
#	30677
#	46047
#	69671
#	83552
#	100718
#	111844
#	125829
#	153637
#	178022
#	192510
#	210183
#
# Disc length: 3116 seconds
#
# Revision: 1
# Processed by: cddbd v1.4PL0 Copyright (c) Steve Scherf et al.
# Submitted via: audiograbber 1.82.01
#
DISCID=a70c2a0d
DTITLE=Sandro Gibellini Blues Sextet - The best of the acoustic Blues
DYEAR=1999
DGENRE=Blues
TTITLE0=W.Dixon - You Can't Judge a Took by
TTITLE1=S. Boy Williamson II - Movin' Out
TTITLE2=Big Bill Broonzy - Diggin' My Potatoes
TTITLE3=Nonsense Blues - Farrington,Gibellini,Pasetto
TTITLE4=E. James - Rollin' and Tumblin'
TTITLE5=J. Cotton - Soul Survivor
TTITLE6=A. Smith,W. Dixson - Big Boss Man
TTITLE7=S. Boy Williamson II - Good Morning' Lil' School Girl
TTITLE8=W.C. Handy - St. Louis Blues
TTITLE9=S. Boy Williamson II - Baby I'm So Glad
TTITLE10=R. Johnson - Sweet Home Chicago
TTITLE11=S. Boy Williamson II - By By Bird
TTITLE12=Farrington,Gibellini,Pasetto - Minor Blues
EXTD=
EXTT0=
EXTT1=
EXTT2=
EXTT3=
EXTT4=
EXTT5=
EXTT6=
EXTT7=
EXTT8=
EXTT9=
EXTT10=
EXTT11=
EXTT12=
PLAYORDER=
